<svg width="349" height="283" viewBox="0 0 349 283" fill="none" xmlns="http://www.w3.org/2000/svg">
<path fill-rule="evenodd" clip-rule="evenodd" d="M149.837 182.31C178.823 179.714 208.511 181.213 236.625 186.801L239.209 187.296C252.883 189.959 268.433 193.43 280.943 200.893C284.81 203.063 288.419 205.665 291.625 208.801L293.309 210.445C294.335 211.633 295.089 212.708 295.622 213.797L295.625 213.801C295.636 213.822 295.645 213.844 295.655 213.865C295.689 213.934 295.721 214.004 295.753 214.073C295.784 214.141 295.815 214.209 295.844 214.277C296.63 216.114 296.812 218.045 296.625 220.676C296.56 221.088 296.488 221.498 296.413 221.906C296.366 222.225 296.311 222.542 296.253 222.859C296.23 222.982 296.206 223.105 296.183 223.228C296.147 223.412 296.111 223.595 296.072 223.777C296.029 223.984 295.984 224.19 295.938 224.395C295.921 224.468 295.904 224.54 295.888 224.612C295.578 225.96 295.219 227.264 294.887 228.461C294.315 230.17 293.722 231.864 293.095 233.55C293.059 233.647 293.024 233.745 292.987 233.843C292.146 236.964 291.312 241.301 291.312 241.301C291.284 241.422 291.929 238.3 291.226 241.661C292.125 237.8 290.4 247.142 288.845 249.229C288.32 250.318 287.714 251.386 287.019 252.446C286.061 253.914 284.936 255.358 283.625 256.801L282.787 257.474C260.882 274.851 228.709 280.992 197.325 282.166C179.446 283.131 161.41 282.293 144.268 280.285C143.435 280.206 142.61 280.126 141.793 280.045C135.194 279.302 128.657 278.17 122.125 276.988C121.453 276.869 120.782 276.751 120.09 276.629C110.9 274.982 100.617 272.745 90.9746 269.167C90.8639 269.126 90.7532 269.085 90.6426 269.044C90.5462 269.008 90.4498 268.972 90.3535 268.935C80.6134 265.272 71.5679 260.193 64.9844 252.859C61.522 247.722 60.576 241.709 59.3125 235.738L58.5137 232.228C55.5691 218.913 55.5691 218.912 57.625 214.801L57.8125 214.364C61.8561 205.27 72.5543 200.554 81.3779 196.789C94.9956 191.339 100.837 189.003 104.907 188.476C107.683 187.495 110.307 186.74 112.678 186.301C124.29 184.265 137.136 183.005 149.837 182.31ZM217.375 221.192C185.765 219.498 142.693 221.11 111.656 227.551C111.654 227.551 111.651 227.551 111.648 227.552C108.501 228.42 104.897 229.348 103.375 229.801L99.8789 230.847C98.3588 231.293 96.5074 231.824 94.6191 232.362L94.6211 232.363C94.0645 232.679 88.5163 235.43 87.9453 235.754L85.75 237.051L83.5703 238.316C81.4515 239.933 81.6177 241.739 80.7686 242.75C80.8658 242.657 80.9286 242.794 80.9961 243.027C84.0328 245.592 87.2011 247.822 90.4785 249.767C90.5281 249.778 90.5764 249.792 90.625 249.801C90.6054 249.807 90.5857 249.813 90.5664 249.819C90.586 249.831 90.6054 249.843 90.625 249.854V249.801L91.1416 250.077C91.4279 250.227 91.7157 250.372 92.0039 250.513C95.8639 252.357 100.839 253.609 105.125 255.176C114.07 258.346 123.645 260.976 133.071 262.676C134.359 262.844 135.65 263.003 136.941 263.155C138.4 263.329 140.251 263.682 141.746 263.863C165.478 266.096 190.181 264.37 212.625 261.801L215.812 261.442C224.93 260.366 233.761 258.876 242.521 256.606C243.623 256.117 244.777 255.715 246.195 255.285L248.914 254.429C250.779 253.852 252.646 253.281 254.516 252.719C259.219 251.224 263.97 248.733 268.307 245.928C269.906 244.884 271.448 243.81 272.899 242.743C272.761 242.346 272.628 241.95 272.398 241.523C270.902 239.226 269.032 237.219 266.898 235.455C253.558 227.393 237.635 223.422 221.362 221.473C221.063 221.454 220.814 221.428 220.625 221.388C220.63 221.388 220.635 221.388 220.641 221.387C220.633 221.387 220.626 221.386 220.619 221.386C220.621 221.387 220.623 221.387 220.625 221.388C219.553 221.323 218.48 221.259 217.375 221.192Z" fill="#D4AF37"/>
<path d="M173.375 41.2381C176.281 40.673 178.619 41.4002 181.244 42.3182C182.094 42.5843 182.625 42.8006 182.625 42.8006C184.226 45.6193 184.227 45.6195 185.25 49.2146C185.443 49.8569 185.636 50.4992 185.835 51.1609C186.244 52.5326 186.641 53.9082 187.026 55.2869C188.027 58.8617 189.126 62.4067 190.211 65.9568C190.42 66.6496 190.629 67.3426 190.844 68.0564C191.188 69.1926 191.548 70.3176 191.922 71.4324C192.315 72.4914 192.715 73.5437 193.123 74.5896C193.299 74.9734 193.467 75.3754 193.625 75.8006C193.626 75.8232 193.626 75.8457 193.627 75.868C197.366 85.2386 201.805 94.113 207.625 102.801C207.69 102.898 207.747 102.985 207.799 103.063C209.442 105.299 211.068 107.547 212.688 109.801L214.041 111.668C214.657 112.526 215.26 113.375 215.844 114.229C217.001 115.405 218.031 116.749 219.162 118.206C220.306 119.497 221.48 120.749 222.684 121.962C223.315 122.51 223.939 123.126 224.594 123.826C232.193 131.001 241.046 136.545 251.932 139.607C255.986 140.2 259.983 140.345 263.913 140.094C273.966 138.921 283.224 136.221 292.346 131.405C294.364 130.307 296.354 129.124 298.312 127.863C304.724 123.435 310.019 118.588 315.047 112.633C315.631 111.955 316.132 111.374 316.57 110.874C319.187 107.867 319.543 107.813 322.125 107.426L322.156 107.429C322.167 107.428 322.177 107.427 322.188 107.426L324.625 107.801L324.727 107.953C325.191 108.132 325.638 108.394 326.438 108.863C328.27 111.852 328.188 114.452 327.625 117.801C326.747 120.534 325.734 123.191 324.695 125.867C323.309 129.666 322.405 133.512 321.469 137.441C320.478 141.386 319.347 145.277 318.188 149.176C317.97 149.91 317.752 150.645 317.527 151.401C317.257 152.31 316.986 153.219 316.716 154.128C316.687 154.238 316.659 154.352 316.629 154.469L315.936 157.174L315.188 159.988L314.451 162.838C313.85 165.161 313.241 167.481 312.625 169.801H312.281C311.461 175.133 309.333 181.049 308.113 185.256C307.798 186.475 307.485 187.695 307.175 188.916C307.091 189.236 307.006 189.556 306.922 189.878L306.16 192.801C305.937 193.667 305.714 194.533 305.484 195.426C305.143 196.368 304.762 197.201 304.331 197.981C303.613 199.81 303.481 199.945 301.625 201.801L300.836 201.778C299.209 201.723 298.922 201.621 296.625 200.801C296.342 200.487 296.096 200.21 295.875 199.965C295.045 199.414 294.229 198.698 293.312 197.738C283.521 188.792 270.161 184.451 257.542 181.049C251.833 179.656 246.117 178.289 240.398 176.932C230.255 174.964 220.032 173.747 209.625 172.801C208.614 172.705 207.603 172.609 206.562 172.511C197.481 171.722 188.42 171.561 179.312 171.551C178.117 171.548 178.117 171.548 176.897 171.546C169.204 171.545 161.57 171.822 153.953 172.315C151.561 172.533 149.169 172.752 146.777 172.972C145.328 173.105 143.878 173.237 142.429 173.368C133.916 174.136 125.455 175.087 116.991 176.208C116.944 176.216 116.897 176.223 116.851 176.231C111.905 177.434 110.034 177.852 108.176 177.923C105.939 178.421 103.706 178.963 101.47 179.551C100.807 179.846 100.141 180.098 99.4541 180.328C97.6281 180.965 95.7499 181.419 93.7988 181.863C90.8198 182.641 87.8521 183.499 84.9287 184.475C75.352 187.795 66.4848 192.082 58.7031 199.234C56.3317 201.021 54.5439 201.438 51.625 201.8C49.4577 196.191 47.5741 190.567 45.875 184.8C45.4942 183.52 45.4941 183.519 45.1057 182.213C44.7039 180.859 44.3041 179.503 43.9043 178.148C43.0255 175.969 42.3526 173.739 41.6797 171.39L40.6055 167.642C40.4242 167.002 40.2434 166.361 40.0566 165.701C39.5009 163.74 38.9362 161.781 38.3711 159.822L37.3047 156.078C36.9823 154.946 36.6603 153.814 36.3281 152.648C36.0984 151.717 35.9459 151.09 35.8418 150.563C35.1012 148.037 34.3585 145.511 33.6101 142.987C32.8147 140.299 32.0283 137.608 31.2441 134.917C30.8033 133.41 30.3589 131.904 29.9121 130.398C29.1816 127.931 28.4646 125.46 27.75 122.988C27.5223 122.228 27.2946 121.468 27.0601 120.686C26.0076 116.997 25.3373 114.444 26.625 110.8C28.4375 108.988 28.4376 108.988 30.625 107.801C34.3503 108.178 36.0445 109.898 38.5625 112.55L40.6875 114.75L42.625 116.8C46.9359 121.332 51.5785 125.124 56.625 128.8C57.3611 129.351 58.0971 129.902 58.8535 130.468C70.2023 138.133 85.7135 141.282 99.3115 139.944L100.625 139.8L103.18 138.961L109.805 136.773C110.587 136.503 111.263 136.272 111.849 136.071C114.643 134.771 117.293 133.242 119.815 131.525C121.786 129.556 122.416 129.154 124.497 127.879C124.644 127.77 124.789 127.659 124.938 127.551C125.554 127.075 126.16 126.585 126.757 126.087C133.962 119.68 140.075 111.819 145.625 103.801C148.503 99.2502 151.078 94.542 153.625 89.8006C153.808 89.4669 153.991 89.1326 154.175 88.7976C154.711 87.6773 155.278 86.5582 155.875 85.4256C159.639 78.1358 162.495 70.5789 165.242 62.8699C166.123 60.1149 166.929 57.3361 167.66 54.5379C168.967 45.8129 169.609 44.6495 172.572 41.9578C172.59 41.9054 172.607 41.8531 172.625 41.8006C172.689 41.7794 172.752 41.759 172.814 41.7391C172.993 41.5784 173.18 41.4123 173.375 41.2381Z" fill="#D4AF37"/>
<path d="M318.362 74.2039C322.709 69.2683 329.63 68.8575 336.625 69.8006L337.138 70.031C339.535 71.1461 341.539 72.5912 343.226 74.3406C343.701 74.7993 344.167 75.2844 344.625 75.8006C344.632 75.8214 344.639 75.8423 344.646 75.8631C344.963 76.1612 345.289 76.4728 345.625 76.8006V77.3387C346.532 78.7008 347.317 80.1902 348 81.8006C348.339 82.8849 348.57 83.9315 348.706 84.951C348.793 85.5522 348.865 86.2039 348.938 86.9256C348.909 87.2765 348.876 87.6241 348.839 87.9685C348.746 89.9697 348.299 91.9021 347.598 93.8592C347.296 94.7565 346.942 95.6308 346.524 96.4822C346.339 96.8897 346.147 97.301 345.945 97.7146C345.614 98.2377 345.273 98.7307 344.922 99.1961C344.386 99.9649 343.787 100.716 343.117 101.449C342.474 101.967 341.826 102.428 341.175 102.838C339.538 103.968 337.663 104.79 335.453 105.39C332.673 105.817 329.88 105.996 327.157 105.688C326.934 105.675 326.71 105.664 326.484 105.648C325.919 105.552 325.387 105.438 324.882 105.307C323.431 104.981 322.008 104.493 320.625 103.801C316.615 100.262 313.067 95.8713 312.289 90.4685C312.267 89.0954 312.286 87.8547 312.368 86.701C312.365 86.2185 312.362 85.7324 312.359 85.2381C312.504 83.9151 312.757 82.8374 313.145 81.8006C313.502 80.8266 313.985 79.888 314.625 78.8006L314.634 78.8318C315.175 77.8626 315.831 76.8656 316.625 75.8006C317.212 75.224 317.789 74.692 318.362 74.2039Z" fill="#D4AF37"/>
<path d="M19.4492 69.1844C22.0083 69.227 24.6006 69.7905 27.2227 70.8748C27.808 71.2222 28.3649 71.5695 28.8945 71.9217C29.2435 72.1538 29.58 72.389 29.9053 72.6267C32.1422 74.2609 33.8266 76.0611 35.0352 78.4881C35.5182 79.4558 35.9272 80.5227 36.2656 81.7185C36.4153 82.5859 36.5351 83.4357 36.627 84.2713C36.7007 84.758 36.7629 85.2631 36.8125 85.7889C36.923 89.4578 36.5629 92.3932 35.1836 95.5945C34.7574 96.6472 34.2413 97.7118 33.625 98.8006C32.8575 99.5926 32.1216 100.29 31.4004 100.905C30.4464 102.1 29.2695 103.116 27.7969 104.035C22.0628 106.056 15.3162 105.856 9.56152 103.915C9.5038 103.896 9.44584 103.876 9.3877 103.856C9.24407 103.807 9.10131 103.756 8.95898 103.704C8.86856 103.671 8.77714 103.639 8.68555 103.604C8.47647 103.526 8.26847 103.446 8.0625 103.363C5.44766 100.614 3.37832 97.8727 1.99023 94.742C1.09061 92.7868 0.422728 90.688 0 88.3631C0.228456 87.0609 0.511074 85.7805 0.858398 84.533C1.13843 83.4507 1.48685 82.4077 1.93359 81.3328C3.4451 77.5561 5.74346 74.2153 9.25 71.6756C12.5634 69.9346 15.9913 69.1069 19.4492 69.1844Z" fill="#D4AF37"/>
<path d="M164.802 2.88846C170.681 -0.369619 175.99 -1.0048 182.852 1.66776C184.815 2.73383 186.364 3.85877 187.642 5.15897C188.746 6.01829 189.675 7.14565 190.625 8.80057C190.653 9.05633 190.677 9.29238 190.701 9.51151C191.167 10.4332 191.594 11.4353 192.004 12.5349C192.502 14.3533 192.766 16.038 192.814 17.6512C192.87 18.8195 192.765 20.1197 192.625 21.8006C192.326 22.8033 191.991 23.7276 191.62 24.5896C191.109 25.9615 190.442 27.351 189.625 28.8006C188.155 30.3143 186.807 31.5928 185.434 32.6394C184.572 33.3611 183.638 34.0734 182.625 34.8006C178.407 36.9096 173.205 36.3151 168.625 35.8006C165.722 34.6822 163.26 33.3783 161.062 31.239L160.625 30.8006C158.519 28.4435 157.329 26.0502 156.725 23.4383C156.508 22.922 156.335 22.3278 156.191 21.6014C156.19 20.9031 156.202 20.2239 156.227 19.5613C156.182 18.5157 156.195 17.4291 156.25 16.2928C156.797 12.6602 157.78 9.63961 159.807 7.02225C160.062 6.61723 160.334 6.21002 160.625 5.80057C162.875 3.80061 162.875 3.80053 164.625 2.80057C164.684 2.83 164.743 2.85903 164.802 2.88846Z" fill="#D4AF37"/>
</svg>
